<?xml version="1.0" standalone="no"?><!DOCTYPE svg PUBLIC "-//W3C//DTD SVG 1.1//EN" "http://www.w3.org/Graphics/SVG/1.1/DTD/svg11.dtd"><svg t="1707446380063" class="icon" viewBox="0 0 1024 1024" version="1.1" xmlns="http://www.w3.org/2000/svg" p-id="4209" xmlns:xlink="http://www.w3.org/1999/xlink" width="32" height="32"><path d="M622.336 512L396.501333 286.165333a42.666667 42.666667 0 1 1 60.330667-60.330666L512 281.002667l140.501333-140.501334a163.328 163.328 0 0 1 230.997334 230.997334l-64 64a42.666667 42.666667 0 0 1-60.330667-60.330667l64-64a77.994667 77.994667 0 0 0-110.336-110.336L572.330667 341.333333l225.834666 225.834667a42.666667 42.666667 0 0 1-60.330666 60.330667L682.666667 572.330667l-311.168 311.168A42.666667 42.666667 0 0 1 341.333333 896H170.666667a42.666667 42.666667 0 0 1-42.666667-42.666667v-170.666666a42.666667 42.666667 0 0 1 12.501333-30.165334l234.666667-234.666666a42.666667 42.666667 0 0 1 60.330667 60.330666L213.333333 700.330667V810.666667h110.336l298.666667-298.666667z" p-id="4210" fill="#ffffff"></path></svg>