<?xml version="1.0" standalone="no"?><!DOCTYPE svg PUBLIC "-//W3C//DTD SVG 1.1//EN" "http://www.w3.org/Graphics/SVG/1.1/DTD/svg11.dtd"><svg t="1707331788298" class="icon" viewBox="0 0 1024 1024" version="1.1" xmlns="http://www.w3.org/2000/svg" p-id="2714" xmlns:xlink="http://www.w3.org/1999/xlink" width="32" height="32"><path d="M967.899429 658.285714a31.670857 31.670857 0 0 1 31.670857 31.744V950.857143a48.713143 48.713143 0 0 1-45.056 48.64l-3.657143 0.146286H689.956571A31.817143 31.817143 0 0 1 658.285714 967.899429v-34.084572a31.670857 31.670857 0 0 1 31.670857-31.670857h212.114286v-212.114286A31.670857 31.670857 0 0 1 933.741714 658.285714h34.157715z m-877.714286 0a31.744 31.744 0 0 1 31.670857 31.744v212.114286h212.114286a31.670857 31.670857 0 0 1 31.744 31.670857v34.084572a31.670857 31.670857 0 0 1-31.744 31.744H73.142857a48.713143 48.713143 0 0 1-48.64-45.129143L24.356571 950.857143V690.029714A31.670857 31.670857 0 0 1 56.027429 658.285714h34.157714zM950.857143 24.356571a48.786286 48.786286 0 0 1 48.64 45.129143l0.073143 3.657143v260.900572a31.817143 31.817143 0 0 1-31.670857 31.670857h-34.157715a31.670857 31.670857 0 0 1-31.670857-31.670857v-212.114286h-212.114286A31.670857 31.670857 0 0 1 658.285714 90.258286V56.027429a31.670857 31.670857 0 0 1 31.670857-31.744H950.857143z m-616.886857 0A31.670857 31.670857 0 0 1 365.714286 56.100571v34.157715a31.670857 31.670857 0 0 1-31.744 31.670857h-212.114286v212.114286A31.670857 31.670857 0 0 1 90.185143 365.714286H56.027429a31.670857 31.670857 0 0 1-31.670858-31.670857V73.142857A48.786286 48.786286 0 0 1 69.485714 24.502857L73.142857 24.356571h260.827429z" p-id="2715"></path></svg>