<?xml version="1.0" standalone="no"?><!DOCTYPE svg PUBLIC "-//W3C//DTD SVG 1.1//EN" "http://www.w3.org/Graphics/SVG/1.1/DTD/svg11.dtd"><svg t="1705772327134" class="icon" viewBox="0 0 1024 1024" version="1.1" xmlns="http://www.w3.org/2000/svg" p-id="5887" width="48" height="48" xmlns:xlink="http://www.w3.org/1999/xlink"><path d="M914.218667 109.994667c-21.333333-21.76-52.906667-29.866667-82.346667-21.333334l-686.506667 198.4a81.664 81.664 0 0 0-59.008 64.426667c-6.058667 31.829333 15.104 72.277333 42.752 89.173333L343.765333 571.733333a55.808 55.808 0 0 0 68.693334-8.106666l245.76-245.845334a31.36 31.36 0 0 1 45.226666 0c12.373333 12.373333 12.373333 32.426667 0 45.226667l-246.186666 245.802667a55.893333 55.893333 0 0 0-8.277334 68.693333l131.157334 215.466667c15.36 25.514667 41.813333 40.106667 70.826666 40.106666 3.413333 0 7.253333 0 10.666667-0.512 33.28-4.224 59.733333-26.88 69.546667-58.88l203.52-681.344c8.96-29.013333 0.853333-60.586667-20.48-82.346666z" fill="#bf8b70" p-id="5888"></path><path d="M128.426667 717.141333a31.957333 31.957333 0 0 1-22.613334-54.613333l58.24-58.282667a32.085333 32.085333 0 0 1 45.269334 0 32.085333 32.085333 0 0 1 0 45.226667L151.04 707.797333a31.744 31.744 0 0 1-22.613333 9.386667zM288.938667 768a31.957333 31.957333 0 0 1-22.613334-54.613333l58.24-58.282667a32.085333 32.085333 0 0 1 45.226667 0 32.085333 32.085333 0 0 1 0 45.269333L311.594667 758.613333a31.744 31.744 0 0 1-22.613334 9.386667z m10.794666 152.234667c6.229333 6.272 14.421333 9.386667 22.613334 9.386666a31.744 31.744 0 0 0 22.613333-9.386666l58.282667-58.24a32.085333 32.085333 0 0 0 0-45.226667 32.085333 32.085333 0 0 0-45.226667 0l-58.282667 58.24a31.957333 31.957333 0 0 0 0 45.226667z" fill="#bf8b70" opacity=".4" p-id="5889"></path></svg>