<?xml version="1.0" standalone="no"?><!DOCTYPE svg PUBLIC "-//W3C//DTD SVG 1.1//EN" "http://www.w3.org/Graphics/SVG/1.1/DTD/svg11.dtd"><svg t="1707596705813" class="icon" viewBox="0 0 1024 1024" version="1.1" xmlns="http://www.w3.org/2000/svg" p-id="4534" xmlns:xlink="http://www.w3.org/1999/xlink" width="32" height="32"><path d="M392.377949 624.779636a46.545455 46.545455 0 0 1 26.530909 42.030546V884.363636a46.545455 46.545455 0 0 0 46.545455 46.545455h93.090909a46.545455 46.545455 0 0 0 46.545454-46.545455v-217.553454a46.545455 46.545455 0 0 1 26.530909-42.030546 279.272727 279.272727 0 1 0-239.336727 0zM325.817949 694.923636a372.363636 372.363636 0 1 1 372.363636 0V884.363636a139.636364 139.636364 0 0 1-139.636363 139.636364H465.454313a139.636364 139.636364 0 0 1-139.636364-139.636364v-189.44z" fill="#ffffff" p-id="4535"></path><path d="M698.181585 372.363636a46.545455 46.545455 0 0 1-93.090909 0 93.090909 93.090909 0 0 0-93.090909-93.090909 46.545455 46.545455 0 1 1 0-93.090909 186.181818 186.181818 0 0 1 186.181818 186.181818zM279.272495 837.818182a46.545455 46.545455 0 0 1 0-93.090909h465.408a46.545455 46.545455 0 1 1 0 93.090909H279.272495z" fill="#ffffff" p-id="4536"></path></svg>