<?xml version="1.0" standalone="no"?><!DOCTYPE svg PUBLIC "-//W3C//DTD SVG 1.1//EN" "http://www.w3.org/Graphics/SVG/1.1/DTD/svg11.dtd"><svg t="1705793261632" class="icon" viewBox="0 0 1024 1024" version="1.1" xmlns="http://www.w3.org/2000/svg" p-id="6866" xmlns:xlink="http://www.w3.org/1999/xlink" width="48" height="48"><path d="M960.05 512c0 247.45-200.6 448.05-448.05 448.05-247.45 0-448.06-200.6-448.06-448.05 0-247.46 200.6-448.06 448.06-448.06 247.46 0.01 448.05 200.61 448.05 448.06zM512 220.77c-160.84 0-291.24 130.39-291.24 291.24 0 160.84 130.4 291.24 291.24 291.24 160.85 0 291.24-130.39 291.24-291.24 0-160.86-130.39-291.24-291.24-291.24z" fill="#a9d8f0" p-id="6867"></path><path d="M509.27 294.98c118.35 0 214.29 95.94 214.29 214.29v0.29c0 118.35-95.94 214.28-214.29 214.28S294.98 627.9 294.98 509.56v-0.29c0.01-118.34 95.95-214.29 214.29-214.29z" fill="#1296db" p-id="6868"></path></svg>