<?xml version="1.0" standalone="no"?><!DOCTYPE svg PUBLIC "-//W3C//DTD SVG 1.1//EN" "http://www.w3.org/Graphics/SVG/1.1/DTD/svg11.dtd"><svg t="1699415473935" class="icon" viewBox="0 0 1024 1024" version="1.1" xmlns="http://www.w3.org/2000/svg" p-id="11402" data-spm-anchor-id="a313x.search_index.0.i10.368d3a81ftnF5K" xmlns:xlink="http://www.w3.org/1999/xlink" width="200" height="200"><path d="M479.232 57.0368c-11.0592 0.512-41.6768 4.3008-56.832 7.0656-60.1088 10.8544-116.0192 33.28-168.0384 67.2768-36.6592 23.9616-71.0656 55.0912-100.9664 91.3408-5.2224 6.3488-15.6672 19.7632-17.1008 22.016-0.8192 1.4336-2.8672 4.1984-4.3008 6.144-7.4752 9.6256-24.8832 39.0144-34.304 57.856-3.072 6.144-6.0416 11.6736-6.5536 12.1856-0.6144 0.6144-4.7104 0.1024-10.4448-1.2288-25.088-5.7344-52.8384-5.7344-67.9936-0.1024C5.9392 322.1504 1.024 327.3728 1.024 332.0832c0 6.8608 13.1072 22.8352 23.04 28.0576 12.3904 6.4512 25.9072 18.432 30.1056 26.8288 6.8608 13.4144 6.8608 29.184-0.3072 75.3664-10.5472 68.096-3.2768 129.4336 23.7568 201.728 5.4272 14.4384 8.3968 21.7088 16.7936 40.448 15.6672 35.1232 34.7136 65.3312 62.0544 98.6112 10.8544 13.2096 34.816 38.0928 45.2608 47.0016 3.072 2.56 9.1136 7.68 13.312 11.264 27.4432 23.3472 65.6384 47.3088 99.328 62.2592 6.4512 2.8672 13.2096 5.8368 14.848 6.656 11.3664 5.0176 30.8224 11.776 50.2784 17.408 65.024 18.8416 141.0048 22.7328 207.7696 10.752 64.4096-11.6736 120.9344-34.304 173.7728-69.7344 9.4208-6.3488 24.3712-17.1008 25.3952-18.2272 0.3072-0.3072 3.9936-3.3792 8.192-6.7584 11.3664-9.1136 15.4624-12.8 31.744-29.184 21.7088-21.6064 30.0032-31.3344 47.8208-56.0128 9.4208-13.1072 22.8352-33.3824 22.8352-34.6112 0-0.2048 1.4336-2.8672 3.1744-5.8368 13.824-23.2448 33.792-67.7888 41.1648-91.9552 4.9152-15.9744 9.9328-37.1712 12.5952-53.248 5.12-31.232 5.8368-42.2912 6.0416-95.4368 0.3072-47.9232 0.4096-49.9712 2.3552-52.736 2.3552-3.3792 16.384-16.896 25.8048-24.8832 28.2624-24.1664 38.1952-38.0928 34.9184-49.0496-1.6384-5.8368-7.7824-11.9808-12.6976-12.9024-2.048-0.4096-15.4624 0.2048-29.696 1.4336-30.3104 2.56-36.4544 2.6624-41.1648 0.7168-4.608-1.9456-5.9392-4.1984-12.3904-21.8112-6.2464-17.1008-12.0832-29.5936-20.992-45.3632-12.0832-21.1968-31.3344-48.8448-48.8448-70.144-0.9216-1.1264-4.5056-5.5296-7.7824-9.728-7.8848-9.9328-36.4544-38.5024-48.2304-48.2304-5.0176-4.1984-9.4208-7.8848-9.728-8.192-0.3072-0.3072-4.608-3.6864-9.728-7.4752-5.0176-3.7888-10.0352-7.5776-11.0592-8.3968-0.9216-0.8192-5.5296-3.8912-10.24-6.9632-48.3328-31.4368-92.7744-50.9952-146.6368-64.512-40.0384-9.9328-88.6784-14.336-134.656-12.1856z m64.1024 27.4432c64.1024 5.8368 126.464 25.4976 179.6096 56.4224 15.1552 8.8064 41.6768 26.5216 45.056 30.1056 0.3072 0.3072 2.1504 1.7408 4.3008 3.2768 2.048 1.536 4.3008 3.3792 5.12 4.096 0.7168 0.7168 3.8912 3.3792 6.9632 5.9392 13.1072 10.6496 36.4544 33.9968 47.104 47.104 2.56 3.072 5.2224 6.2464 5.9392 6.9632 0.7168 0.8192 2.56 3.072 4.096 5.12 1.536 2.1504 3.584 4.7104 4.608 5.8368 1.024 1.1264 4.7104 6.144 8.0896 11.264 3.4816 5.0176 6.656 9.4208 7.0656 9.728 1.7408 1.2288 20.48 33.6896 27.136 47.104 8.9088 17.7152 19.8656 42.9056 19.8656 45.6704 0 0.6144-6.8608 1.7408-9.728 1.536-5.0176-0.3072-11.3664-4.8128-16.5888-11.8784-4.8128-6.5536-6.0416-8.704-16.6912-28.672-2.9696-5.632-7.168-13.4144-9.3184-17.2032-2.2528-3.8912-3.9936-7.2704-3.9936-7.4752 0-1.9456-25.6-40.7552-31.3344-47.5136-1.2288-1.4336-5.0176-6.0416-8.4992-10.24-9.728-11.776-31.8464-33.6896-42.5984-42.2912-1.1264-0.9216-4.608-3.584-7.68-6.144-3.072-2.4576-7.8848-5.9392-10.752-7.8848-2.7648-1.9456-5.3248-3.6864-5.632-4.096-0.6144-0.7168-11.8784-8.192-14.848-9.8304-1.1264-0.6144-5.0176-2.9696-8.704-5.2224-10.5472-6.4512-31.232-16.9984-44.544-22.8352-6.7584-2.9696-13.7216-5.9392-15.36-6.656-10.5472-4.7104-42.3936-15.4624-60.928-20.5824-13.2096-3.584-35.328-7.5776-54.784-9.8304-16.896-1.9456-66.048-1.536-84.2752 0.6144-64.1024 7.5776-121.4464 27.7504-175.3088 61.44-11.6736 7.3728-35.6352 24.576-43.3152 31.1296-21.9136 18.8416-47.2064 45.1584-60.1088 62.6688-1.4336 1.8432-3.4816 4.608-4.7104 6.0416-7.5776 9.5232-22.8352 33.792-29.5936 47.2064-6.0416 12.0832-8.2944 14.336-14.0288 14.336-4.5056 0-16.1792-1.6384-16.896-2.3552-0.4096-0.512 5.7344-12.4928 14.6432-28.4672 6.0416-10.752 24.3712-38.5024 32.5632-49.0496 4.3008-5.632 19.1488-23.4496 22.6304-27.2384 16.7936-18.432 40.3456-40.1408 55.808-51.6096 1.8432-1.4336 4.608-3.4816 6.0416-4.7104 17.1008-13.7216 60.6208-38.7072 85.6064-49.0496 27.648-11.4688 61.3376-21.7088 87.552-26.5216 14.4384-2.6624 44.2368-6.5536 54.784-7.0656 17.92-0.9216 50.8928-0.512 65.6384 0.8192z m-10.0352 212.0704c25.9072 2.9696 49.7664 9.0112 75.3664 19.0464 23.8592 9.3184 38.5024 17.1008 76.3904 40.448 25.4976 15.7696 21.1968 14.7456 50.4832 11.9808 15.4624-1.4336 25.088-1.536 82.6368-0.6144 63.5904 1.1264 92.16 0.6144 122.6752-1.8432 6.8608-0.512 18.3296-1.536 25.6-2.1504 22.016-1.7408 37.7856-1.6384 43.9296 0.512 18.1248 6.144 11.0592 20.992-26.112 54.6816-14.1312 12.8-25.7024 24.7808-29.9008 30.8224-2.1504 3.1744-5.0176 6.9632-6.3488 8.4992-1.3312 1.536-4.1984 4.9152-6.4512 7.68-7.9872 9.4208-24.6784 26.3168-34.304 34.4064-27.4432 23.04-68.096 43.52-104.448 52.3264-21.4016 5.2224-31.3344 6.2464-59.5968 6.2464-26.7264 0-27.4432 0-27.4432 2.048 0 2.8672 0.6144 3.4816 9.4208 10.1376 4.3008 3.1744 8.8064 7.3728 9.9328 9.216 3.8912 6.2464 2.1504 16.1792-4.3008 23.7568-2.7648 3.2768-2.6624 4.1984 1.3312 6.8608 3.8912 2.6624 9.1136 2.048 20.3776-2.4576 11.3664-4.5056 20.6848-5.632 25.7024-2.9696 3.584 1.8432 4.096 2.8672 4.096 9.1136 0 7.168-2.6624 11.776-9.8304 16.9984l-5.632 3.9936 5.9392 1.6384c15.9744 4.5056 26.9312 13.824 26.9312 22.9376 0 5.12-1.8432 7.9872-7.3728 11.4688-3.9936 2.56-4.608 2.6624-14.1312 1.9456l-9.9328-0.7168-3.1744 3.8912c-3.584 4.3008-5.3248 10.752-5.3248 19.6608 0 6.9632-3.1744 19.8656-6.2464 26.0096-4.7104 9.3184-14.0288 21.8112-21.4016 28.8768-12.3904 11.5712-23.6544 16.384-38.2976 16.1792-12.4928-0.1024-18.8416-3.1744-35.328-16.896l-8.6016-7.168 0.7168 6.0416c0.9216 7.9872 3.3792 23.4496 5.2224 33.6896 0.8192 4.5056 1.9456 10.752 2.4576 13.824 2.3552 12.9024 3.3792 26.3168 3.6864 47.104 0.2048 12.0832 0.4096 23.04 0.512 24.3712 0.3072 3.3792-2.4576 5.9392-10.6496 9.8304-18.7392 8.8064-56.2176 18.432-94.8224 24.3712-11.3664 1.7408-20.5824 2.1504-52.5312 2.56-40.96 0.6144-46.8992 0.1024-55.7056-3.9936-2.9696-1.4336-4.7104-2.9696-5.2224-4.8128-0.4096-1.4336-0.7168-11.1616-0.6144-21.6064 0.1024-20.1728 0.8192-25.2928 10.1376-74.752 8.2944-44.032 11.776-69.0176 9.9328-70.8608-2.1504-2.1504-7.2704 0.4096-13.9264 7.0656-3.6864 3.6864-6.7584 7.0656-6.7584 7.5776s-1.4336 3.2768-3.1744 6.0416c-2.4576 3.9936-3.3792 6.8608-3.7888 11.776-0.512 6.5536-0.512 6.5536 2.9696 8.704 2.56 1.536 4.9152 2.048 8.6016 1.8432 2.8672-0.1024 5.12 0.2048 5.12 0.7168-0.1024 1.3312-1.1264 7.2704-4.7104 25.4976-7.8848 41.0624-10.3424 60.928-10.3424 84.7872 0.1024 9.5232 0 17.2032-0.1024 17.2032-0.7168 0-30.1056-6.7584-40.448-9.3184-26.0096-6.4512-49.8688-15.5648-57.344-21.9136-1.9456-1.6384-4.608-4.7104-6.0416-6.9632-3.3792-5.3248-2.8672-11.9808 1.536-21.1968 1.7408-3.6864 3.6864-7.9872 4.3008-9.6256 2.3552-6.2464 0.7168-27.0336-2.2528-28.8768-0.512-0.3072-3.6864 0.6144-7.0656 2.1504-5.4272 2.3552-6.3488 2.56-8.8064 1.3312-3.9936-1.8432-7.8848-9.728-10.0352-19.8656-1.024-4.8128-2.1504-8.9088-2.6624-9.216-1.1264-0.7168-3.3792 2.9696-6.5536 10.9568-3.072 7.8848-4.1984 8.6016-14.9504 9.6256-6.9632 0.6144-7.7824 0.512-9.6256-1.536-3.1744-3.584-3.2768-13.7216-0.1024-29.9008 1.4336-7.5776 2.6624-14.6432 2.6624-15.7696 0-1.024-1.9456-4.9152-4.4032-8.6016-6.2464-9.728-8.4992-14.1312-10.3424-20.3776-5.12-17.3056 2.1504-30.3104 24.9856-45.3632 4.8128-3.1744 10.6496-6.656 13.1072-7.8848 2.3552-1.2288 4.3008-2.4576 4.3008-2.6624 0-0.3072-1.4336-1.9456-3.072-3.7888-1.7408-1.7408-4.5056-6.2464-6.2464-9.9328-1.7408-3.6864-5.8368-12.288-9.1136-19.0464-3.2768-6.7584-6.4512-14.1312-7.168-16.384-0.7168-2.2528-2.4576-6.656-3.9936-9.728-4.8128-10.4448-3.2768-21.4016 4.4032-29.9008 3.4816-3.8912 9.728-7.9872 11.9808-7.9872 3.7888 0 1.8432-1.9456-3.3792-3.4816-10.24-2.8672-26.5216-6.8608-34.9184-8.3968-44.032-8.192-82.6368-24.4736-109.7728-46.4896-8.4992-6.9632-20.3776-18.944-25.8048-26.112-2.1504-2.8672-4.1984-5.3248-4.608-5.4272-0.512-0.2048-0.8192-1.024-0.8192-1.7408s-0.4096-1.536-0.9216-1.7408c-1.8432-0.6144-11.6736-17.92-21.2992-37.1712-11.264-22.528-15.4624-29.7984-21.1968-36.864-10.24-12.4928-23.7568-26.112-35.4304-35.5328-4.1984-3.3792-9.4208-7.5776-11.5712-9.3184-2.1504-1.7408-6.3488-4.9152-9.216-7.0656-6.3488-4.8128-8.192-7.9872-8.2944-14.336-0.1024-6.0416 2.4576-9.728 9.216-13.1072 4.608-2.3552 6.0416-2.56 18.8416-2.4576 13.1072 0.1024 36.6592 2.8672 59.904 7.0656 19.1488 3.4816 42.2912 7.8848 46.4896 8.8064 2.3552 0.512 7.8848 1.6384 12.288 2.4576 10.752 1.9456 41.5744 7.9872 59.4944 11.776 36.4544 7.68 45.3632 9.4208 57.9584 11.776 7.4752 1.3312 16.2816 3.1744 19.6608 3.9936 11.9808 3.1744 17.6128 1.7408 34.5088-8.8064 2.8672-1.7408 10.4448-6.0416 16.896-9.5232 6.4512-3.4816 14.5408-7.8848 17.92-9.728 15.7696-8.6016 46.592-21.504 65.536-27.648 16.1792-5.12 41.984-10.9568 54.272-12.288 6.2464-0.6144 12.1856-1.3312 13.312-1.4336 6.2464-0.9216 28.0576-0.4096 40.2432 1.024zM91.4432 441.856c7.0656 14.1312 7.2704 15.36 7.3728 58.368 0.2048 49.8688 2.3552 69.632 11.3664 107.008 11.5712 47.3088 29.696 88.576 57.6512 130.56 2.56 3.8912 5.0176 7.3728 5.3248 7.68 0.3072 0.3072 2.048 2.7648 3.9936 5.632 1.9456 2.7648 3.6864 5.3248 4.096 5.632 0.3072 0.3072 3.584 4.1984 7.168 8.704 3.6864 4.5056 8.0896 9.728 9.9328 11.776 1.7408 1.9456 4.1984 4.7104 5.4272 6.144 8.9088 10.4448 30.5152 30.8224 44.9536 42.496 26.7264 21.6064 48.7424 35.5328 80.7936 51.3024 17.2032 8.3968 49.9712 21.2992 61.1328 23.9616 1.7408 0.4096 8.192 2.1504 14.336 3.8912 47.0016 12.9024 106.5984 16.4864 155.0336 9.4208 35.1232-5.2224 75.5712-16.2816 101.0688-27.648 2.7648-1.2288 6.656-2.9696 8.6016-3.7888 20.7872-9.0112 53.6576-27.8528 73.3184-41.8816 35.0208-25.088 74.24-64.512 95.6416-96.1536 1.8432-2.8672 3.7888-5.3248 4.096-5.632 0.4096-0.3072 4.5056-6.7584 9.216-14.336 21.2992-34.304 38.6048-74.8544 48.2304-112.64 7.68-30.6176 10.9568-53.3504 11.9808-84.48 0.9216-26.9312 1.3312-28.2624 13.4144-40.3456l7.68-7.7824 0.7168 6.656c1.2288 12.0832 0.9216 46.2848-0.6144 63.8976-2.048 23.2448-4.8128 40.2432-10.3424 63.0784-3.072 12.4928-12.6976 43.008-15.7696 49.664-0.512 1.1264-2.2528 5.5296-3.8912 9.728-9.4208 24.064-24.6784 52.3264-42.496 78.848-5.4272 7.9872-21.6064 29.696-24.9856 33.28-1.024 1.1264-3.584 4.1984-5.7344 6.8608-5.632 6.9632-32.768 34.2016-41.6768 41.8816-14.9504 12.6976-18.1248 15.2576-25.1904 20.3776-3.8912 2.8672-7.8848 5.8368-8.9088 6.7584-2.3552 1.9456-19.5584 13.1072-29.9008 19.3536-7.2704 4.4032-36.0448 19.3536-44.032 22.8352-48.7424 21.4016-98.816 33.0752-155.136 36.1472-60.1088 3.2768-127.7952-8.4992-184.32-32.1536-25.9072-10.8544-54.1696-25.9072-74.752-39.936-7.68-5.3248-31.232-22.7328-33.3824-24.7808-0.6144-0.512-4.096-3.584-7.68-6.656-8.9088-7.5776-37.2736-35.7376-42.8032-42.496-2.56-3.072-6.0416-7.2704-7.9872-9.4208-1.8432-2.1504-6.656-8.3968-10.752-13.9264s-9.4208-12.6976-11.776-15.872c-2.3552-3.1744-4.4032-6.3488-4.4032-7.0656 0-0.6144-0.4096-1.3312-0.9216-1.536-1.024-0.4096-3.8912-4.9152-13.6192-21.8112C104.6528 674.4064 86.016 618.7008 78.9504 562.176c-5.12-40.7552-3.2768-89.7024 4.608-128.512l0.6144-2.9696 2.048 2.4576c1.1264 1.4336 3.4816 5.3248 5.2224 8.704zM449.536 755.712c0.6144 1.2288 1.024 3.584 0.8192 5.4272-0.2048 2.4576-0.9216 3.4816-3.1744 4.3008-2.4576 0.8192-3.1744 0.6144-4.4032-1.024-1.7408-2.2528-1.8432-6.0416-0.4096-8.8064 1.4336-2.56 5.7344-2.56 7.168 0.1024z" p-id="11403"></path><path d="M483.328 326.0416l-9.728 1.2288 10.24 0.512c7.68 0.4096 11.5712 1.1264 15.7696 2.9696l5.5296 2.4576 6.7584-2.4576c5.12-1.8432 9.8304-2.56 19.0464-2.9696l12.288-0.6144-11.8784-1.3312c-14.1312-1.4336-34.6112-1.4336-48.0256 0.2048zM463.4624 329.3184c-7.4752 2.3552-5.2224 2.6624 2.9696 0.4096 3.9936-1.024 6.0416-1.9456 4.608-1.9456-1.4336 0-4.8128 0.7168-7.5776 1.536zM62.6688 353.1776c10.1376 11.6736 15.4624 20.48 34.304 57.4464 20.48 39.936 29.0816 53.1456 45.8752 70.2464 15.7696 16.0768 30.0032 24.2688 52.224 30.208 3.4816 0.9216 12.3904 1.4336 28.16 1.4336 25.9072 0.1024 23.4496-0.4096 43.9296 9.6256 10.5472 5.12 13.824 6.144 14.848 4.3008 0.3072-0.512 1.1264-11.1616 1.6384-23.6544 2.1504-43.52-1.9456-65.536-14.6432-79.5648-3.584-3.9936-15.0528-11.9808-22.2208-15.36-13.0048-6.2464-42.0864-15.5648-83.968-26.8288-22.4256-6.0416-72.4992-21.1968-94.5152-28.672l-9.1136-3.072 3.4816 3.8912zM494.592 358.0928c-15.6672 0.8192-44.6464 5.632-51.2 8.4992-2.9696 1.2288-4.8128 1.4336 19.456-2.1504 11.264-1.6384 21.7088-2.2528 43.008-2.6624 26.8288-0.512 35.2256-0.1024 67.072 3.2768 10.5472 1.1264-0.512-1.3312-15.6672-3.4816-24.576-3.4816-43.8272-4.5056-62.6688-3.4816zM579.3792 366.2848c0.7168 0.3072 1.6384 0.2048 1.9456-0.1024 0.4096-0.3072-0.2048-0.6144-1.3312-0.512-1.1264 0-1.4336 0.3072-0.6144 0.6144z" p-id="11404"></path><path d="M438.0672 368.3328c0.7168 0.3072 1.6384 0.2048 1.9456-0.1024 0.4096-0.3072-0.2048-0.6144-1.3312-0.512-1.1264 0-1.4336 0.3072-0.6144 0.6144zM973.824 390.7584c-2.56 1.4336-10.1376 4.8128-14.848 6.5536-6.2464 2.3552-23.3472 6.3488-33.1776 7.7824-7.2704 1.024-25.9072 1.8432-55.9104 2.4576-24.7808 0.512-48.4352 1.4336-52.6336 1.9456-19.8656 2.8672-32.0512 6.3488-44.032 12.6976-26.624 14.0288-37.6832 26.624-41.5744 47.4112-1.6384 8.0896-2.2528 50.0736-0.8192 56.7296l0.6144 3.3792 33.3824-0.6144c49.5616-1.024 67.3792-2.9696 86.9376-9.5232 19.2512-6.3488 32.256-15.4624 51.4048-35.84 5.8368-6.2464 17.92-20.5824 22.7328-27.2384 1.536-2.048 3.3792-4.3008 4.096-5.12 1.6384-1.6384 5.5296-6.656 14.2336-18.2272 3.584-4.8128 6.7584-8.9088 7.0656-9.216 0.3072-0.3072 2.8672-3.4816 5.632-7.168s5.3248-6.8608 5.632-7.168c0.3072-0.3072 2.8672-3.4816 5.632-7.168s6.144-7.7824 7.3728-9.216c3.7888-4.096 2.9696-5.12-1.7408-2.4576zM611.328 414.208c-13.7216 3.072-27.4432 10.8544-37.376 20.8896-7.5776 7.7824-6.3488 7.3728 18.944-6.3488 14.848-8.0896 21.7088-10.24 32.256-10.3424 13.0048 0 23.2448 3.6864 38.8096 14.1312 3.8912 2.56 7.2704 4.7104 7.4752 4.7104 1.024 0-3.7888-6.656-7.8848-10.9568-5.0176-5.12-16.0768-10.752-24.3712-12.4928-6.9632-1.4336-20.6848-1.2288-27.8528 0.4096zM382.976 419.4304c-15.36 2.3552-26.7264 6.0416-36.864 11.776-6.656 3.8912-9.4208 6.0416-7.4752 6.0416 0.4096 0 6.3488-1.6384 13.1072-3.6864 25.3952-7.4752 30.9248-8.6016 41.8816-8.6016 5.7344 0 12.8 0.7168 15.872 1.536 7.2704 1.8432 19.1488 7.68 25.088 12.288 5.4272 4.096 6.144 2.7648 1.7408-3.2768-5.5296-7.68-14.0288-12.3904-27.0336-15.0528-7.0656-1.536-19.8656-1.9456-26.3168-1.024zM378.368 442.368c-27.136 3.9936-46.592 21.0944-49.4592 43.52-1.3312 9.8304-0.2048 13.2096 6.7584 19.968 15.6672 15.2576 54.9888 26.0096 83.456 22.7328 14.7456-1.6384 22.528-4.5056 28.4672-10.4448 3.3792-3.3792 5.12-6.0416 5.632-8.704 0.9216-5.2224-0.1024-15.4624-2.1504-20.48-1.9456-4.9152-5.9392-13.1072-6.656-13.824-0.3072-0.3072-1.7408-2.3552-3.2768-4.608-13.1072-19.5584-39.936-31.5392-62.7712-28.16z m-5.9392 13.7216c3.4816 3.1744 3.7888 3.9936 4.1984 10.1376 0.4096 6.5536 0.4096 6.7584-3.2768 10.3424-10.9568 10.6496-26.9312 1.2288-23.6544-13.824 1.4336-6.2464 6.7584-10.0352 14.1312-10.1376 4.096 0 5.4272 0.512 8.6016 3.4816z m23.552 23.9616c0.8192 3.4816-1.9456 5.632-5.4272 4.096-3.072-1.4336-3.1744-4.3008-0.3072-6.3488 2.7648-1.9456 4.8128-1.1264 5.7344 2.2528zM607.0272 445.2352c-4.3008 1.6384-10.4448 4.5056-13.6192 6.4512-13.6192 8.192-27.648 24.576-31.8464 37.0688-2.4576 7.2704-2.4576 17.5104 0.1024 22.7328 6.0416 12.4928 19.968 18.0224 45.9776 18.1248 29.0816 0.1024 50.8928-7.3728 66.2528-22.9376 18.1248-18.2272 13.6192-40.448-10.8544-53.248-13.0048-6.7584-25.1904-10.24-37.376-10.6496-9.728-0.4096-11.4688-0.1024-18.6368 2.4576z m11.0592 10.752c3.1744 2.8672 3.7888 4.1984 4.3008 8.9088 0.6144 7.0656-1.6384 11.4688-7.4752 14.336-5.3248 2.56-6.9632 2.56-12.3904 0-5.632-2.7648-8.0896-7.5776-7.2704-14.4384 0.9216-7.7824 5.9392-12.0832 14.336-12.1856 4.096 0 5.4272 0.512 8.4992 3.3792z m22.3232 21.8112c2.1504 2.048 2.048 2.7648-0.3072 5.632-1.6384 2.048-2.3552 2.2528-3.8912 1.3312-2.56-1.536-2.9696-5.632-0.7168-7.2704 2.3552-1.7408 2.9696-1.6384 4.9152 0.3072zM522.3424 516.3008c-1.4336 3.6864-5.3248 5.5296-13.5168 6.3488-9.6256 1.024-22.4256-2.4576-22.4256-6.0416 0-2.4576-1.9456-1.7408-2.6624 1.024-0.9216 3.6864 0 5.3248 4.5056 7.5776 9.3184 4.7104 32.768 3.3792 37.376-2.048 2.2528-2.7648 2.2528-4.1984-0.2048-7.168l-1.9456-2.4576-1.1264 2.7648zM484.9664 557.568c-14.1312 2.9696-23.8592 7.168-30.9248 13.5168-4.3008 3.7888-3.6864 4.3008 1.6384 1.4336 5.9392-3.1744 17.408-6.9632 28.16-9.216 11.5712-2.56 32.9728-3.072 44.8512-1.1264 8.6016 1.3312 21.7088 5.4272 26.112 8.192 2.4576 1.536 3.2768 1.6384 3.2768 0.6144 0-2.56-10.9568-9.0112-19.6608-11.6736-7.4752-2.2528-10.8544-2.56-27.4432-2.8672-13.6192-0.2048-20.8896 0.1024-26.0096 1.1264zM295.1168 571.904c-12.0832 6.8608-16.5888 12.4928-16.5888 20.2752 0 4.4032 1.1264 7.4752 7.68 20.2752 5.8368 11.4688 7.8848 16.6912 8.6016 21.6064 0.512 3.584 1.536 7.7824 2.2528 9.5232 1.8432 4.1984 8.192 12.5952 12.288 16.4864 9.4208 8.8064 29.7984 19.8656 48.0256 26.0096 17.6128 5.9392 63.488 17.408 69.632 17.408 1.1264 0 2.56-1.024 3.1744-2.2528 1.8432-3.4816 0.512-18.432-2.6624-28.4672-5.7344-18.5344-7.68-27.136-7.68-33.6896 0-12.6976 5.12-21.1968 15.6672-26.112 7.68-3.584 11.1616-4.3008 33.8944-7.2704 18.7392-2.4576 34.0992-6.0416 36.864-8.704 2.8672-2.7648-66.1504-2.4576-104.3456 0.512-24.064 1.9456-47.4112 1.536-57.344-0.9216-13.312-3.2768-25.8048-10.752-36.864-22.016-2.7648-2.8672-5.7344-5.2224-6.656-5.2224-0.8192 0-3.4816 1.1264-5.9392 2.56z" p-id="11405"></path><path d="M480.5632 570.6752c-1.7408 0.7168-3.584 1.536-3.9936 1.9456-1.8432 1.9456 41.984 1.4336 50.7904-0.4096l5.632-1.2288-6.144-0.7168c-10.4448-1.2288-42.7008-0.9216-46.2848 0.4096zM714.24 570.2656c-0.9216 1.536-18.944 9.9328-25.2928 11.776-9.216 2.6624-28.672 3.6864-74.5472 4.096-58.4704 0.512-68.4032 1.9456-117.76 17.408-17.2032 5.3248-28.5696 7.5776-41.472 8.3968-14.848 0.8192-20.0704 2.1504-24.3712 6.2464-8.2944 7.7824-8.3968 17.5104-0.8192 50.688 6.5536 28.16 5.632 36.5568-3.9936 38.1952-2.2528 0.4096-6.5536 0.1024-9.728-0.6144l-5.632-1.2288-3.584 3.9936c-6.7584 7.5776-3.9936 12.5952 8.704 15.872 3.8912 1.024 11.8784 1.4336 26.112 1.4336 23.3472 0 35.6352-1.7408 49.152-6.9632 8.4992-3.2768 9.728-3.9936 11.5712-7.4752 0.9216-1.8432 2.4576-2.2528 9.6256-2.7648 8.9088-0.7168 21.9136-3.9936 33.9968-8.4992 12.6976-4.8128 21.6064-8.8064 50.7904-22.7328 31.8464-15.0528 41.2672-19.1488 52.736-22.528 8.0896-2.3552 17.3056-3.7888 18.8416-2.8672 0.512 0.4096 0.1024 2.2528-1.024 4.7104-1.024 2.1504-1.9456 4.4032-1.9456 5.0176 0 0.512-0.4096 1.1264-0.8192 1.3312-1.6384 0.6144-9.216 22.8352-11.5712 33.5872-1.8432 8.704-2.1504 12.5952-1.6384 20.992 0.7168 11.9808 2.56 18.2272 8.0896 26.624 7.4752 11.3664 18.7392 17.2032 33.5872 17.3056 18.8416 0.2048 35.84-8.9088 47.5136-25.3952 6.3488-8.8064 8.8064-14.1312 11.4688-24.4736 2.4576-9.216 4.4032-27.3408 2.9696-27.3408-1.7408 0-22.7328 11.6736-25.3952 14.1312-3.9936 3.6864-5.0176 5.8368-5.7344 11.8784-0.512 4.608-0.9216 5.2224-3.1744 5.5296-3.8912 0.512-6.9632 4.096-9.3184 10.6496-2.3552 6.3488-3.3792 7.2704-4.3008 3.584-4.9152-19.7632-5.9392-25.9072-6.5536-39.7312-0.7168-16.7936 0.3072-24.3712 4.8128-36.7616 4.608-12.9024 13.9264-25.3952 24.1664-32.3584 3.072-2.1504 5.5296-4.1984 5.5296-4.608 0-0.4096-1.2288-1.7408-2.6624-2.8672-2.048-1.6384-4.1984-2.1504-8.8064-2.1504h-6.144l5.4272-5.7344c7.8848-8.0896 10.1376-12.1856 10.1376-18.432 0-6.0416-1.6384-8.704-9.4208-14.848-4.9152-3.8912-8.2944-4.9152-9.5232-3.072zM283.136 682.1888c-5.2224 3.072-11.5712 12.6976-14.4384 22.2208-1.7408 5.8368-1.8432 15.4624-0.2048 19.2512 3.8912 9.0112 24.064 31.232 45.8752 50.4832 11.9808 10.5472 25.3952 24.3712 26.2144 26.8288 0.3072 1.024 1.536 1.8432 2.8672 1.8432 1.9456 0 2.8672-1.1264 4.7104-5.3248 4.5056-10.5472 7.8848-35.4304 5.3248-39.3216-0.4096-0.6144-3.1744-1.9456-6.144-2.8672-3.8912-1.3312-7.3728-3.6864-13.312-9.216-8.9088-8.4992-10.3424-9.3184-16.2816-10.3424-5.9392-0.9216-6.9632-2.4576-17.1008-24.4736-2.56-5.5296-4.096-7.8848-5.12-7.4752-1.1264 0.512-1.536-1.1264-1.8432-7.9872-0.2048-6.7584-0.8192-9.216-2.4576-11.4688-2.4576-3.1744-5.0176-3.8912-8.0896-2.1504z" p-id="11406"></path><path d="M708.9152 697.856c-2.9696 1.2288-3.3792 1.9456-3.3792 5.4272 0 2.1504 0.7168 6.2464 1.536 9.0112 0.8192 2.7648 1.536 6.656 1.536 8.6016 0.1024 3.1744 0.3072 3.3792 1.3312 1.6384 0.7168-1.024 3.4816-4.8128 6.144-8.4992 5.3248-7.0656 9.216-14.7456 8.0896-15.7696-1.7408-1.536-12.0832-1.8432-15.2576-0.4096z" p-id="11407"></path></svg>